<svg xmlns="http://www.w3.org/2000/svg" width="443.16705322265625" height="423.836181640625" viewBox="-120.78008270263672 -106.95722961425781 443.16705322265625 423.836181640625"><title>Neo4j Graph Visualization</title><desc>Created using Neo4j (http://www.neo4j.com/)</desc><g class="layer relationships"><g class="relationship" transform="translate(133.11081595015128 287.8789361938658) rotate(332.90212596732636)"><path class="outline" fill="#A5ABB6" stroke="none" d="M 21.40063509461097,12.933012701892217 L 21.90063509461097,12.06698729810778 A 55.608604152630406 55.608604152630406 0 0 0 23.365542057646312,12.883548913996982 L 22.891885228552287,13.76425840540297 A 56.608604152630406 56.608604152630406 0 0 1 21.40063509461097,12.933012701892217 Z M 73.27444281858614,15.377081481848094 L 72.85808375090606,14.467881214161942 A 55.608604152630406 55.608604152630406 0 0 0 74.37221676088541,13.746683244819339 L 73.04145437442516,11.057989980279364 L 80.86762810922205,11.08968655383542 L 76.14656660949906,17.331607597539303 L 74.81580422303881,14.64291433299933 A 56.608604152630406 56.608604152630406 0 0 1 73.27444281858614,15.377081481848094"/><text text-anchor="middle" pointer-events="none" font-size="8px" fill="#000000" x="47.90973411777764" y="22.98840133896085" font-family="sans-serif">PRODUCED</text></g><g class="relationship" transform="translate(133.11081595015128 287.8789361938658) rotate(332.90212596732636)"><path class="outline" fill="#A5ABB6" stroke="none" d="M 25 0.5 L 26.248030781860933 0.5 L 26.248030781860933 -0.5 L 25 -0.5 Z M 70.02537453186093 0.5 L 71.27340531372187 0.5 L 71.27340531372187 3.5 L 78.27340531372187 0 L 71.27340531372187 -3.5 L 71.27340531372187 -0.5 L 70.02537453186093 -0.5 Z"/><text text-anchor="middle" pointer-events="none" font-size="8px" fill="#000000" x="48.13670265686093" y="3" font-family="sans-serif">DIRECT…</text></g><g class="relationship" transform="translate(133.11081595015128 287.8789361938658) rotate(332.90212596732636)"><path class="outline" fill="#A5ABB6" stroke="none" d="M 21.40063509461097,-12.933012701892217 L 21.90063509461097,-12.06698729810778 A 55.608604152630406 55.608604152630406 0 0 1 30.59570876024307,-16.130685829301704 L 30.25207078008026,-17.069788027462067 A 56.608604152630406 56.608604152630406 0 0 0 21.40063509461097,-12.933012701892217 Z M 65.71791283554232,-18.205104121536692 L 65.4350410724188,-17.24594638392135 A 55.608604152630406 55.608604152630406 0 0 1 74.37221676088541,-13.746683244819339 L 73.04145437442516,-11.057989980279364 L 80.86762810922205,-11.08968655383542 L 76.14656660949906,-17.331607597539303 L 74.81580422303881,-14.64291433299933 A 56.608604152630406 56.608604152630406 0 0 0 65.71791283554232,-18.205104121536692"/><text text-anchor="middle" pointer-events="none" font-size="8px" fill="#000000" x="47.90973411777763" y="-16.98840133896085" font-family="sans-serif">WROTE</text></g><g class="relationship" transform="translate(293.3869688207119 87.31717576093482) rotate(255.5100303787617)"><path class="outline" fill="#A5ABB6" stroke="none" d="M 24.018736134675446,-6.953439040707552 L 24.277555179777966,-5.987513214418485 A 100.57691434774996 100.57691434774996 0 0 1 24.74037736881902,-6.110345950280049 L 24.486159997888375,-7.077493058178902 A 101.57691434774996 101.57691434774996 0 0 0 24.018736134675446,-6.953439040707552 Z M 72.91736379842452,-7.866565311765797 L 72.6947877551082,-6.89164997957451 A 100.57691434774996 100.57691434774996 0 0 1 73.1613657742247,-6.783959628357277 L 72.47972059316686,-3.862425810798321 L 80.09188554537191,-5.680376508815444 L 74.07022601563517,-10.679338051769218 L 73.38858083457733,-7.757804234210262 A 101.57691434774996 101.57691434774996 0 0 0 72.91736379842452,-7.866565311765797"/><text text-anchor="middle" pointer-events="none" font-size="8px" fill="#000000" x="48.66218468431332" y="-6.901175693141866" transform="rotate(180 48.66218468431332 -9.901175693141866)" font-family="sans-serif">PRODUC…</text></g><g class="relationship" transform="translate(293.3869688207119 87.31717576093482) rotate(255.5100303787617)"><path class="outline" fill="#A5ABB6" stroke="none" d="M 24.018736134675446,6.953439040707552 L 24.277555179777966,5.987513214418485 A 100.57691434774996 100.57691434774996 0 0 0 30.992776486561763,7.5423237457253975 L 30.800724465983038,8.523708492596683 A 101.57691434774996 101.57691434774996 0 0 1 24.018736134675446,6.953439040707552 Z M 66.55903801130792,9.106305885176141 L 66.39905813787867,8.119185608767253 A 100.57691434774996 100.57691434774996 0 0 0 73.1613657742247,6.783959628357277 L 72.47972059316686,3.862425810798321 L 80.09188554537191,5.680376508815444 L 74.07022601563517,10.679338051769218 L 73.38858083457733,7.757804234210262 A 101.57691434774996 101.57691434774996 0 0 1 66.55903801130792,9.106305885176141"/><text text-anchor="middle" pointer-events="none" font-size="8px" fill="#000000" x="48.662184684313324" y="12.901175693141866" transform="rotate(180 48.662184684313324 9.901175693141866)" font-family="sans-serif">WROTE</text></g><g class="relationship" transform="translate(96.36057898520212 -77.95722912255407) rotate(464.86740969367816)"><path class="outline" fill="#A5ABB6" stroke="none" d="M 24.018736134675446,6.953439040707552 L 24.277555179777966,5.987513214418485 A 105.85675686334882 105.85675686334882 0 0 0 24.52854738994908,6.054436418679515 L 24.272099400012127,7.020994450283041 A 106.85675686334882 106.85675686334882 0 0 1 24.018736134675446,6.953439040707552 Z M 75.77795666530837,7.840708169776178 L 75.55239622847674,6.866478992766815 A 105.85675686334882 105.85675686334882 0 0 0 75.80539094621723,6.807576720904344 L 75.12153971879202,3.8865584911171633 L 82.73507535362485,5.698760228543392 L 76.71719258278416,10.70226769395392 L 76.03334135535896,7.781249464166739 A 106.85675686334882 106.85675686334882 0 0 1 75.77795666530837,7.840708169776178"/><text text-anchor="middle" pointer-events="none" font-size="8px" fill="#000000" x="49.98285057418681" y="13.08102795619962" transform="rotate(180 49.98285057418681 10.08102795619962)" font-family="sans-serif">PRODUCED</text></g><g class="relationship" transform="translate(96.36057898520212 -77.95722912255407) rotate(464.86740969367816)"><path class="outline" fill="#A5ABB6" stroke="none" d="M 24.018736134675446,-6.953439040707552 L 24.277555179777966,-5.987513214418485 A 105.85675686334882 105.85675686334882 0 0 1 32.29798675668637,-7.805853588678204 L 32.114934547963145,-8.788956782082408 A 106.85675686334882 106.85675686334882 0 0 0 24.018736134675446,-6.953439040707552 Z M 67.88283361787904,-9.358201507668412 L 67.73115828929122,-8.369771138498294 A 105.85675686334882 105.85675686334882 0 0 1 75.80539094621723,-6.807576720904344 L 75.12153971879202,-3.8865584911171633 L 82.73507535362485,-5.698760228543392 L 76.71719258278416,-10.70226769395392 L 76.03334135535896,-7.781249464166739 A 106.85675686334882 106.85675686334882 0 0 0 67.88283361787904,-9.358201507668412"/><text text-anchor="middle" pointer-events="none" font-size="8px" fill="#000000" x="49.98285057418682" y="-7.08102795619962" transform="rotate(180 49.98285057418682 -10.08102795619962)" font-family="sans-serif">WROTE</text></g><g class="relationship" transform="translate(-33.31902817506732 -6.181956314692244) rotate(377.2404241717763)"><path class="outline" fill="#A5ABB6" stroke="none" d="M 24.018736134675446,6.953439040707552 L 24.277555179777966,5.987513214418485 A 105.73035969840628 105.73035969840628 0 0 0 24.497745167270335,6.0462586803705705 L 24.241008683771884,7.012740122531184 A 106.73035969840628 106.73035969840628 0 0 1 24.018736134675446,6.953439040707552 Z M 75.74592938570689,7.83289445443674 L 75.52009539115696,6.8587286539152785 A 105.73035969840628 105.73035969840628 0 0 0 75.7420441693241,6.807023719605936 L 75.05824459682283,3.8859933971602616 L 82.67174818378089,5.698329770843917 L 76.65377693265914,10.701730816200168 L 75.96997736015787,7.780700493754494 A 106.73035969840628 106.73035969840628 0 0 1 75.74592938570689,7.83289445443674"/><text text-anchor="middle" pointer-events="none" font-size="8px" fill="#000000" x="49.951208770611125" y="13.076722130651305" font-family="sans-serif">PRODUCED</text></g><g class="relationship" transform="translate(-33.31902817506732 -6.181956314692244) rotate(377.2404241717763)"><path class="outline" fill="#A5ABB6" stroke="none" d="M 24.018736134675446,-6.953439040707552 L 24.277555179777966,-5.987513214418485 A 105.73035969840628 105.73035969840628 0 0 1 32.266691893481266,-7.799636186478722 L 32.08343427403257,-8.782701110537147 A 106.73035969840628 106.73035969840628 0 0 0 24.018736134675446,-6.953439040707552 Z M 67.85112521815688,-9.35225885900644 L 67.69926084377744,-8.363857517549263 A 105.73035969840628 105.73035969840628 0 0 1 75.7420441693241,-6.807023719605936 L 75.05824459682283,-3.8859933971602616 L 82.67174818378089,-5.698329770843917 L 76.65377693265914,-10.701730816200168 L 75.96997736015787,-7.780700493754494 A 106.73035969840628 106.73035969840628 0 0 0 67.85112521815688,-9.35225885900644"/><text text-anchor="middle" pointer-events="none" font-size="8px" fill="#000000" x="49.95120877061114" y="-7.076722130651305" font-family="sans-serif">WROTE</text></g><g class="relationship" transform="translate(-91.78008502833165 159.97108460608018) rotate(414.2963725316281)"><path class="outline" fill="#A5ABB6" stroke="none" d="M 21.40063509461097,12.933012701892217 L 21.90063509461097,12.06698729810778 A 56.74829568335295 56.74829568335295 0 0 0 31.129517834008027,16.342752292634394 L 30.792146202459705,17.28412383577048 A 57.74829568335295 57.74829568335295 0 0 1 21.40063509461097,12.933012701892217 Z M 66.27595375743752,18.408711007399923 L 65.99886902910393,17.4478655186119 A 56.74829568335295 56.74829568335295 0 0 0 75.47998198655989,13.76507581596518 L 74.1475085397318,11.077230114757976 L 81.97370086384805,11.103945390234152 L 77.25661324899735,17.348870084241454 L 75.92413980216926,14.661024383034249 A 57.74829568335295 57.74829568335295 0 0 1 66.27595375743752,18.408711007399923"/><text text-anchor="middle" pointer-events="none" font-size="8px" fill="#000000" x="48.461325072422085" y="23.14108757986736" font-family="sans-serif">WROTE</text></g><g class="relationship" transform="translate(-91.78008502833165 159.97108460608018) rotate(414.2963725316281)"><path class="outline" fill="#A5ABB6" stroke="none" d="M 25 0.5 L 25.240895020287383 0.5 L 25.240895020287383 -0.5 L 25 -0.5 Z M 72.13152002028738 0.5 L 72.37241504057477 0.5 L 72.37241504057477 3.5 L 79.37241504057477 0 L 72.37241504057477 -3.5 L 72.37241504057477 -0.5 L 72.13152002028738 -0.5 Z"/><text text-anchor="middle" pointer-events="none" font-size="8px" fill="#000000" x="48.68620752028738" y="3" font-family="sans-serif">DIRECTED</text></g><g class="relationship" transform="translate(-91.78008502833165 159.97108460608018) rotate(414.2963725316281)"><path class="outline" fill="#A5ABB6" stroke="none" d="M 21.40063509461097,-12.933012701892217 L 21.90063509461097,-12.06698729810778 A 56.74829568335295 56.74829568335295 0 0 1 23.871794533370842,-13.153496156580296 L 23.406529663563273,-14.038667665906566 A 57.74829568335295 57.74829568335295 0 0 0 21.40063509461097,-12.933012701892217 Z M 73.85225815749601,-15.637442516657323 L 73.44397813914726,-14.724585777285178 A 56.74829568335295 56.74829568335295 0 0 1 75.47998198655989,-13.76507581596518 L 74.1475085397318,-11.077230114757976 L 81.97370086384805,-11.103945390234152 L 77.25661324899735,-17.348870084241454 L 75.92413980216926,-14.661024383034249 A 57.74829568335295 57.74829568335295 0 0 0 73.85225815749601,-15.637442516657323"/><text text-anchor="middle" pointer-events="none" font-size="8px" fill="#000000" x="48.461325072422085" y="-17.14108757986736" font-family="sans-serif">PRODUCED</text></g></g><g class="layer nodes"><g class="node" transform="translate(133.11081595015128,287.8789361938658)"><circle class="outline" cx="0" cy="0" r="25" fill="#F79767" stroke="#f36924" stroke-width="2px"/><text text-anchor="middle" pointer-events="none" font-family="sans-serif" dy="1.5625" font-size="25" fill="#FFFFFF"/><text text-anchor="middle" pointer-events="none" font-family="sans-serif" dy="1.5625" font-size="25" fill="#FFFFFF"/><text text-anchor="middle" pointer-events="none" x="0" y="0" font-size="10px" fill="#FFFFFF" font-family="sans-serif"> Cameron</text><text text-anchor="middle" pointer-events="none" x="0" y="10" font-size="10px" fill="#FFFFFF" font-family="sans-serif"> Crowe</text></g><g class="node" transform="translate(225.04786930875977,240.83667365443588)"><circle class="outline" cx="0" cy="0" r="25" fill="#57C7E3" stroke="#23b3d7" stroke-width="2px"/><text text-anchor="middle" pointer-events="none" font-family="sans-serif" dy="1.5625" font-size="25" fill="#2A2C34"/><text text-anchor="middle" pointer-events="none" font-family="sans-serif" dy="1.5625" font-size="25" fill="#2A2C34"/><text text-anchor="middle" pointer-events="none" x="0" y="0" font-size="10px" fill="#2A2C34" font-family="sans-serif"> Jerry</text><text text-anchor="middle" pointer-events="none" x="0" y="10" font-size="10px" fill="#2A2C34" font-family="sans-serif"> Maguire</text></g><g class="node" transform="translate(293.3869688207119,87.31717576093482)"><circle class="outline" cx="0" cy="0" r="25" fill="#F79767" stroke="#f36924" stroke-width="2px"/><text text-anchor="middle" pointer-events="none" font-family="sans-serif" dy="1.5625" font-size="25" fill="#FFFFFF"/><text text-anchor="middle" pointer-events="none" font-family="sans-serif" dy="1.5625" font-size="25" fill="#FFFFFF"/><text text-anchor="middle" pointer-events="none" x="0" y="0" font-size="10px" fill="#FFFFFF" font-family="sans-serif"> Nora</text><text text-anchor="middle" pointer-events="none" x="0" y="10" font-size="10px" fill="#FFFFFF" font-family="sans-serif"> Ephron</text></g><g class="node" transform="translate(267.25548306401333,-13.798804383779528)"><circle class="outline" cx="0" cy="0" r="25" fill="#57C7E3" stroke="#23b3d7" stroke-width="2px"/><text text-anchor="middle" pointer-events="none" font-family="sans-serif" dy="1.5625" font-size="25" fill="#2A2C34"/><text text-anchor="middle" pointer-events="none" font-family="sans-serif" dy="1.5625" font-size="25" fill="#2A2C34"/><text text-anchor="middle" pointer-events="none" font-family="sans-serif" dy="1.5625" font-size="25" fill="#2A2C34"/><text text-anchor="middle" pointer-events="none" x="0" y="-5" font-size="10px" fill="#2A2C34" font-family="sans-serif"> When</text><text text-anchor="middle" pointer-events="none" x="0" y="5" font-size="10px" fill="#2A2C34" font-family="sans-serif"> Harry Met</text><text text-anchor="middle" pointer-events="none" x="0" y="15" font-size="10px" fill="#2A2C34" font-family="sans-serif"> Sally</text></g><g class="node" transform="translate(96.36057898520212,-77.95722912255407)"><circle class="outline" cx="0" cy="0" r="25" fill="#F79767" stroke="#f36924" stroke-width="2px"/><text text-anchor="middle" pointer-events="none" font-family="sans-serif" dy="1.5625" font-size="25" fill="#FFFFFF"/><text text-anchor="middle" pointer-events="none" font-family="sans-serif" dy="1.5625" font-size="25" fill="#FFFFFF"/><text text-anchor="middle" pointer-events="none" x="0" y="0" font-size="10px" fill="#FFFFFF" font-family="sans-serif"> Lilly</text><text text-anchor="middle" pointer-events="none" x="0" y="10" font-size="10px" fill="#FFFFFF" font-family="sans-serif"> Wacho…</text></g><g class="node" transform="translate(68.88646092052092,25.534964067921663)"><circle class="outline" cx="0" cy="0" r="25" fill="#57C7E3" stroke="#23b3d7" stroke-width="2px"/><text text-anchor="middle" pointer-events="none" font-family="sans-serif" dy="1.5625" font-size="25" fill="#2A2C34"/><text text-anchor="middle" pointer-events="none" font-family="sans-serif" dy="1.5625" font-size="25" fill="#2A2C34"/><text text-anchor="middle" pointer-events="none" x="0" y="0" font-size="10px" fill="#2A2C34" font-family="sans-serif"> V for</text><text text-anchor="middle" pointer-events="none" x="0" y="10" font-size="10px" fill="#2A2C34" font-family="sans-serif"> Vendetta</text></g><g class="node" transform="translate(-33.31902817506732,-6.181956314692244)"><circle class="outline" cx="0" cy="0" r="25" fill="#F79767" stroke="#f36924" stroke-width="2px"/><text text-anchor="middle" pointer-events="none" font-family="sans-serif" dy="1.5625" font-size="25" fill="#FFFFFF"/><text text-anchor="middle" pointer-events="none" font-family="sans-serif" dy="1.5625" font-size="25" fill="#FFFFFF"/><text text-anchor="middle" pointer-events="none" x="0" y="0" font-size="10px" fill="#FFFFFF" font-family="sans-serif"> Lana</text><text text-anchor="middle" pointer-events="none" x="0" y="10" font-size="10px" fill="#FFFFFF" font-family="sans-serif"> Wacho…</text></g><g class="node" transform="translate(-91.78008502833165,159.97108460608018)"><circle class="outline" cx="0" cy="0" r="25" fill="#F79767" stroke="#f36924" stroke-width="2px"/><text text-anchor="middle" pointer-events="none" font-family="sans-serif" dy="1.5625" font-size="25" fill="#FFFFFF"/><text text-anchor="middle" pointer-events="none" font-family="sans-serif" dy="1.5625" font-size="25" fill="#FFFFFF"/><text text-anchor="middle" pointer-events="none" x="0" y="0" font-size="10px" fill="#FFFFFF" font-family="sans-serif"> Nancy</text><text text-anchor="middle" pointer-events="none" x="0" y="10" font-size="10px" fill="#FFFFFF" font-family="sans-serif"> Meyers</text></g><g class="node" transform="translate(-30.869113438284614,244.72634734154977)"><circle class="outline" cx="0" cy="0" r="25" fill="#57C7E3" stroke="#23b3d7" stroke-width="2px"/><text text-anchor="middle" pointer-events="none" font-family="sans-serif" dy="1.5625" font-size="25" fill="#2A2C34"/><text text-anchor="middle" pointer-events="none" x="0" y="5" font-size="10px" fill="#2A2C34" font-family="sans-serif"> Somethi…</text></g></g></svg>