<svg xmlns="http://www.w3.org/2000/svg" width="237.6607666015625" height="246.5311279296875" viewBox="-9.398130416870117 -10.662164688110352 237.6607666015625 246.5311279296875"><title>Neo4j Graph Visualization</title><desc>Created using Neo4j (http://www.neo4j.com/)</desc><g class="layer relationships"><g class="relationship" transform="translate(125.45772183117013 127.25037402625291) rotate(407.6183210902972)"><path class="outline" fill="#A5ABB6" stroke="none" d="M 25 0.5 L 27.611892295310007 0.5 L 27.611892295310007 -0.5 L 25 -0.5 Z M 73.17439229531001 0.5 L 75.78628459062001 0.5 L 75.78628459062001 3.5 L 82.78628459062001 0 L 75.78628459062001 -3.5 L 75.78628459062001 -0.5 L 73.17439229531001 -0.5 Z"/><text text-anchor="middle" pointer-events="none" font-size="8px" fill="#000000" x="50.39314229531001" y="3" font-family="sans-serif">ACTED_IN</text></g><g class="relationship" transform="translate(125.45772183117013 127.25037402625291) rotate(310.8193616706285)"><path class="outline" fill="#A5ABB6" stroke="none" d="M 25 0.5 L 30.17245769520794 0.5 L 30.17245769520794 -0.5 L 25 -0.5 Z M 75.73495769520794 0.5 L 80.90741539041588 0.5 L 80.90741539041588 3.5 L 87.90741539041588 0 L 80.90741539041588 -3.5 L 80.90741539041588 -0.5 L 75.73495769520794 -0.5 Z"/><text text-anchor="middle" pointer-events="none" font-size="8px" fill="#000000" x="52.95370769520794" y="3" font-family="sans-serif">ACTED_IN</text></g><g class="relationship" transform="translate(125.45772183117013 127.25037402625291) rotate(254.14474333845425)"><path class="outline" fill="#A5ABB6" stroke="none" d="M 25 0.5 L 30.328749680423932 0.5 L 30.328749680423932 -0.5 L 25 -0.5 Z M 75.89124968042393 0.5 L 81.21999936084786 0.5 L 81.21999936084786 3.5 L 88.21999936084786 0 L 81.21999936084786 -3.5 L 81.21999936084786 -0.5 L 75.89124968042393 -0.5 Z"/><text text-anchor="middle" pointer-events="none" font-size="8px" fill="#000000" x="53.10999968042393" y="3" transform="rotate(180 53.10999968042393 0)" font-family="sans-serif">ACTED_IN</text></g><g class="relationship" transform="translate(125.45772183117013 127.25037402625291) rotate(200.78617378624875)"><path class="outline" fill="#A5ABB6" stroke="none" d="M 25 0.5 L 30.33152589947351 0.5 L 30.33152589947351 -0.5 L 25 -0.5 Z M 75.89402589947352 0.5 L 81.22555179894702 0.5 L 81.22555179894702 3.5 L 88.22555179894702 0 L 81.22555179894702 -3.5 L 81.22555179894702 -0.5 L 75.89402589947352 -0.5 Z"/><text text-anchor="middle" pointer-events="none" font-size="8px" fill="#000000" x="53.11277589947351" y="3" transform="rotate(180 53.11277589947351 0)" font-family="sans-serif">ACTED_IN</text></g><g class="relationship" transform="translate(125.45772183117013 127.25037402625291) rotate(504.16086876289114)"><path class="outline" fill="#A5ABB6" stroke="none" d="M 25 0.5 L 30.184169575854504 0.5 L 30.184169575854504 -0.5 L 25 -0.5 Z M 75.7466695758545 0.5 L 80.93083915170901 0.5 L 80.93083915170901 3.5 L 87.93083915170901 0 L 80.93083915170901 -3.5 L 80.93083915170901 -0.5 L 75.7466695758545 -0.5 Z"/><text text-anchor="middle" pointer-events="none" font-size="8px" fill="#000000" x="52.965419575854504" y="3" transform="rotate(180 52.965419575854504 0)" font-family="sans-serif">ACTED_IN</text></g></g><g class="layer nodes"><g class="node" transform="translate(125.45772183117013,127.25037402625291)"><circle class="outline" cx="0" cy="0" r="25" fill="#F79767" stroke="#f36924" stroke-width="2px"/><text text-anchor="middle" pointer-events="none" font-family="sans-serif" dy="1.5625" font-size="25" fill="#FFFFFF"/><text text-anchor="middle" pointer-events="none" font-family="sans-serif" dy="1.5625" font-size="25" fill="#FFFFFF"/><text text-anchor="middle" pointer-events="none" x="0" y="0" font-size="10px" fill="#FFFFFF" font-family="sans-serif"> Hugo</text><text text-anchor="middle" pointer-events="none" x="0" y="10" font-size="10px" fill="#FFFFFF" font-family="sans-serif"> Weaving</text></g><g class="node" transform="translate(198.11281548607624,206.86896803448036)"><circle class="outline" cx="0" cy="0" r="25" fill="#57C7E3" stroke="#23b3d7" stroke-width="2px"/><text text-anchor="middle" pointer-events="none" font-family="sans-serif" dy="1.5625" font-size="25" fill="#2A2C34"/><text text-anchor="middle" pointer-events="none" font-family="sans-serif" dy="1.5625" font-size="25" fill="#2A2C34"/><text text-anchor="middle" pointer-events="none" x="0" y="0" font-size="10px" fill="#2A2C34" font-family="sans-serif"> Cloud</text><text text-anchor="middle" pointer-events="none" x="0" y="10" font-size="10px" fill="#2A2C34" font-family="sans-serif"> Atlas</text></g><g class="node" transform="translate(199.2626317389573,41.80495446705515)"><circle class="outline" cx="0" cy="0" r="25" fill="#57C7E3" stroke="#23b3d7" stroke-width="2px"/><text text-anchor="middle" pointer-events="none" font-family="sans-serif" dy="1.5625" font-size="25" fill="#2A2C34"/><text text-anchor="middle" pointer-events="none" font-family="sans-serif" dy="1.5625" font-size="25" fill="#2A2C34"/><text text-anchor="middle" pointer-events="none" x="0" y="0" font-size="10px" fill="#2A2C34" font-family="sans-serif"> V for</text><text text-anchor="middle" pointer-events="none" x="0" y="10" font-size="10px" fill="#2A2C34" font-family="sans-serif"> Vendetta</text></g><g class="node" transform="translate(94.52510165048108,18.337834509319343)"><circle class="outline" cx="0" cy="0" r="25" fill="#57C7E3" stroke="#23b3d7" stroke-width="2px"/><text text-anchor="middle" pointer-events="none" font-family="sans-serif" dy="1.5625" font-size="25" fill="#2A2C34"/><text text-anchor="middle" pointer-events="none" font-family="sans-serif" dy="1.5625" font-size="25" fill="#2A2C34"/><text text-anchor="middle" pointer-events="none" font-family="sans-serif" dy="1.5625" font-size="25" fill="#2A2C34"/><text text-anchor="middle" pointer-events="none" x="0" y="-5" font-size="10px" fill="#2A2C34" font-family="sans-serif"> The</text><text text-anchor="middle" pointer-events="none" x="0" y="5" font-size="10px" fill="#2A2C34" font-family="sans-serif"> Matrix</text><text text-anchor="middle" pointer-events="none" x="0" y="15" font-size="10px" fill="#2A2C34" font-family="sans-serif"> Revol…</text></g><g class="node" transform="translate(19.601869353549567,87.06873547812667)"><circle class="outline" cx="0" cy="0" r="25" fill="#57C7E3" stroke="#23b3d7" stroke-width="2px"/><text text-anchor="middle" pointer-events="none" font-family="sans-serif" dy="1.5625" font-size="25" fill="#2A2C34"/><text text-anchor="middle" pointer-events="none" font-family="sans-serif" dy="1.5625" font-size="25" fill="#2A2C34"/><text text-anchor="middle" pointer-events="none" font-family="sans-serif" dy="1.5625" font-size="25" fill="#2A2C34"/><text text-anchor="middle" pointer-events="none" x="0" y="-5" font-size="10px" fill="#2A2C34" font-family="sans-serif"> The</text><text text-anchor="middle" pointer-events="none" x="0" y="5" font-size="10px" fill="#2A2C34" font-family="sans-serif"> Matrix</text><text text-anchor="middle" pointer-events="none" x="0" y="15" font-size="10px" fill="#2A2C34" font-family="sans-serif"> Reloa…</text></g><g class="node" transform="translate(33.90874226970857,193.37267565561442)"><circle class="outline" cx="0" cy="0" r="25" fill="#57C7E3" stroke="#23b3d7" stroke-width="2px"/><text text-anchor="middle" pointer-events="none" font-family="sans-serif" dy="1.5625" font-size="25" fill="#2A2C34"/><text text-anchor="middle" pointer-events="none" font-family="sans-serif" dy="1.5625" font-size="25" fill="#2A2C34"/><text text-anchor="middle" pointer-events="none" x="0" y="0" font-size="10px" fill="#2A2C34" font-family="sans-serif"> The</text><text text-anchor="middle" pointer-events="none" x="0" y="10" font-size="10px" fill="#2A2C34" font-family="sans-serif"> Matrix</text></g></g></svg>