<svg xmlns="http://www.w3.org/2000/svg" width="179.0999755859375" height="204.59780883789062" viewBox="14.684165954589844 8.080387115478516 179.0999755859375 204.59780883789062"><title>Neo4j Graph Visualization</title><desc>Created using Neo4j (http://www.neo4j.com/)</desc><g class="layer relationships"><g class="relationship" transform="translate(44.754381223698736 183.67819510009113) rotate(345.7431901377124)"><path class="outline" fill="#A5ABB6" stroke="none" d="M 25 0.5 L 32.9443059470813 0.5 L 32.9443059470813 -0.5 L 25 -0.5 Z M 78.50680594708129 0.5 L 86.4511118941626 0.5 L 86.4511118941626 3.5 L 93.4511118941626 0 L 86.4511118941626 -3.5 L 86.4511118941626 -0.5 L 78.50680594708129 -0.5 Z"/><text text-anchor="middle" pointer-events="none" font-size="8px" fill="#000000" x="55.7255559470813" y="3" font-family="sans-serif">ACTED_IN</text></g><g class="relationship" transform="translate(44.754381223698736 183.67819510009113) rotate(299.13692044572485)"><path class="outline" fill="#A5ABB6" stroke="none" d="M 25 0.5 L 25.542232325907662 0.5 L 25.542232325907662 -0.5 L 25 -0.5 Z M 60.87816982590766 0.5 L 61.420402151815324 0.5 L 61.420402151815324 3.5 L 68.42040215181532 0 L 61.420402151815324 -3.5 L 61.420402151815324 -0.5 L 60.87816982590766 -0.5 Z"/><text text-anchor="middle" pointer-events="none" font-size="8px" fill="#000000" x="43.21020107590766" y="3" font-family="sans-serif">ACTE…</text></g><g class="relationship" transform="translate(44.754381223698736 183.67819510009113) rotate(269.51174611199303)"><path class="outline" fill="#A5ABB6" stroke="none" d="M 25 0.5 L 36.5135871150444 0.5 L 36.5135871150444 -0.5 L 25 -0.5 Z M 82.0760871150444 0.5 L 93.5896742300888 0.5 L 93.5896742300888 3.5 L 100.5896742300888 0 L 93.5896742300888 -3.5 L 93.5896742300888 -0.5 L 82.0760871150444 -0.5 Z"/><text text-anchor="middle" pointer-events="none" font-size="8px" fill="#000000" x="59.2948371150444" y="3" transform="rotate(180 59.2948371150444 0)" font-family="sans-serif">ACTED_IN</text></g><g class="relationship" transform="translate(164.78412770845478 37.08038778983454) rotate(452.54858061502637)"><path class="outline" fill="#A5ABB6" stroke="none" d="M 25 0.5 L 32.49039782851865 0.5 L 32.49039782851865 -0.5 L 25 -0.5 Z M 78.05289782851865 0.5 L 85.5432956570373 0.5 L 85.5432956570373 3.5 L 92.5432956570373 0 L 85.5432956570373 -3.5 L 85.5432956570373 -0.5 L 78.05289782851865 -0.5 Z"/><text text-anchor="middle" pointer-events="none" font-size="8px" fill="#000000" x="55.27164782851865" y="3" transform="rotate(180 55.27164782851865 0)" font-family="sans-serif">ACTED_IN</text></g><g class="relationship" transform="translate(164.78412770845478 37.08038778983454) rotate(498.91287804341266)"><path class="outline" fill="#A5ABB6" stroke="none" d="M 25 0.5 L 25.394340352794188 0.5 L 25.394340352794188 -0.5 L 25 -0.5 Z M 66.50762160279419 0.5 L 66.90196195558838 0.5 L 66.90196195558838 3.5 L 73.90196195558838 0 L 66.90196195558838 -3.5 L 66.90196195558838 -0.5 L 66.50762160279419 -0.5 Z"/><text text-anchor="middle" pointer-events="none" font-size="8px" fill="#000000" x="45.95098097779419" y="3" transform="rotate(180 45.95098097779419 0)" font-family="sans-serif">ACTED…</text></g><g class="relationship" transform="translate(164.78412770845478 37.08038778983454) rotate(530.1563160659098)"><path class="outline" fill="#A5ABB6" stroke="none" d="M 25 0.5 L 35.17347799966599 0.5 L 35.17347799966599 -0.5 L 25 -0.5 Z M 80.73597799966599 0.5 L 90.90945599933198 0.5 L 90.90945599933198 3.5 L 97.90945599933198 0 L 90.90945599933198 -3.5 L 90.90945599933198 -0.5 L 80.73597799966599 -0.5 Z"/><text text-anchor="middle" pointer-events="none" font-size="8px" fill="#000000" x="57.95472799966599" y="3" transform="rotate(180 57.95472799966599 0)" font-family="sans-serif">ACTED_IN</text></g></g><g class="layer nodes"><g class="node" transform="translate(159.55739389296474,154.50741878159425)"><circle class="outline" cx="0" cy="0" r="25" fill="#57C7E3" stroke="#23b3d7" stroke-width="2px"/><text text-anchor="middle" pointer-events="none" font-family="sans-serif" dy="1.5625" font-size="25" fill="#2A2C34"/><text text-anchor="middle" pointer-events="none" font-family="sans-serif" dy="1.5625" font-size="25" fill="#2A2C34"/><text text-anchor="middle" pointer-events="none" font-family="sans-serif" dy="1.5625" font-size="25" fill="#2A2C34"/><text text-anchor="middle" pointer-events="none" x="0" y="-5" font-size="10px" fill="#2A2C34" font-family="sans-serif"> The</text><text text-anchor="middle" pointer-events="none" x="0" y="5" font-size="10px" fill="#2A2C34" font-family="sans-serif"> Matrix</text><text text-anchor="middle" pointer-events="none" x="0" y="15" font-size="10px" fill="#2A2C34" font-family="sans-serif"> Revol…</text></g><g class="node" transform="translate(44.754381223698736,183.67819510009113)"><circle class="outline" cx="0" cy="0" r="25" fill="#F79767" stroke="#f36924" stroke-width="2px"/><text text-anchor="middle" pointer-events="none" font-family="sans-serif" dy="1.5625" font-size="25" fill="#FFFFFF"/><text text-anchor="middle" pointer-events="none" font-family="sans-serif" dy="1.5625" font-size="25" fill="#FFFFFF"/><text text-anchor="middle" pointer-events="none" x="0" y="0" font-size="10px" fill="#FFFFFF" font-family="sans-serif"> Hugo</text><text text-anchor="middle" pointer-events="none" x="0" y="10" font-size="10px" fill="#FFFFFF" font-family="sans-serif"> Weaving</text></g><g class="node" transform="translate(164.78412770845478,37.08038778983454)"><circle class="outline" cx="0" cy="0" r="25" fill="#F79767" stroke="#f36924" stroke-width="2px"/><text text-anchor="middle" pointer-events="none" font-family="sans-serif" dy="1.5625" font-size="25" fill="#FFFFFF"/><text text-anchor="middle" pointer-events="none" font-family="sans-serif" dy="1.5625" font-size="25" fill="#FFFFFF"/><text text-anchor="middle" pointer-events="none" x="0" y="0" font-size="10px" fill="#FFFFFF" font-family="sans-serif"> Keanu</text><text text-anchor="middle" pointer-events="none" x="0" y="10" font-size="10px" fill="#FFFFFF" font-family="sans-serif"> Reeves</text></g><g class="node" transform="translate(90.24061842863173,102.07933626527978)"><circle class="outline" cx="0" cy="0" r="25" fill="#57C7E3" stroke="#23b3d7" stroke-width="2px"/><text text-anchor="middle" pointer-events="none" font-family="sans-serif" dy="1.5625" font-size="25" fill="#2A2C34"/><text text-anchor="middle" pointer-events="none" font-family="sans-serif" dy="1.5625" font-size="25" fill="#2A2C34"/><text text-anchor="middle" pointer-events="none" font-family="sans-serif" dy="1.5625" font-size="25" fill="#2A2C34"/><text text-anchor="middle" pointer-events="none" x="0" y="-5" font-size="10px" fill="#2A2C34" font-family="sans-serif"> The</text><text text-anchor="middle" pointer-events="none" x="0" y="5" font-size="10px" fill="#2A2C34" font-family="sans-serif"> Matrix</text><text text-anchor="middle" pointer-events="none" x="0" y="15" font-size="10px" fill="#2A2C34" font-family="sans-serif"> Reloa…</text></g><g class="node" transform="translate(43.684164444988525,58.09308089754561)"><circle class="outline" cx="0" cy="0" r="25" fill="#57C7E3" stroke="#23b3d7" stroke-width="2px"/><text text-anchor="middle" pointer-events="none" font-family="sans-serif" dy="1.5625" font-size="25" fill="#2A2C34"/><text text-anchor="middle" pointer-events="none" font-family="sans-serif" dy="1.5625" font-size="25" fill="#2A2C34"/><text text-anchor="middle" pointer-events="none" x="0" y="0" font-size="10px" fill="#2A2C34" font-family="sans-serif"> The</text><text text-anchor="middle" pointer-events="none" x="0" y="10" font-size="10px" fill="#2A2C34" font-family="sans-serif"> Matrix</text></g></g></svg>